<svg width="1018" height="155" viewBox="0 0 1018 155" fill="none" xmlns="http://www.w3.org/2000/svg">
<path d="M0.67 83.93L44.896 83.93C45.652 86.198 47.866 88.142 51.538 89.762C55.21 91.274 60.124 92.462 66.28 93.326C72.544 94.082 79.78 94.46 87.988 94.46C96.088 94.46 102.46 94.244 107.104 93.812C111.856 93.272 115.204 92.408 117.148 91.22C119.092 89.924 120.064 88.196 120.064 86.036C120.064 83.984 118.498 82.418 115.366 81.338C112.234 80.15 106.672 79.34 98.68 78.908C90.688 78.476 79.456 78.26 64.984 78.26C54.184 78.26 44.842 77.774 36.958 76.802C29.182 75.722 22.756 74.102 17.68 71.942C12.712 69.674 9.04 66.866 6.664 63.518C4.288 60.062 3.1 55.958 3.1 51.206C3.1 42.998 5.854 36.248 11.362 30.956C16.978 25.556 25.402 21.56 36.634 18.968C47.974 16.268 62.122 14.918 79.078 14.918C103.918 14.918 122.872 18.536 135.94 25.772C149.116 32.9 155.704 43.214 155.704 56.714L113.746 56.714C113.206 53.15 109.858 50.45 103.702 48.614C97.546 46.67 88.798 45.698 77.458 45.698C66.226 45.698 57.856 46.346 52.348 47.642C46.948 48.938 44.248 51.152 44.248 54.284C44.248 55.904 45.004 57.2 46.516 58.172C48.028 59.144 50.62 59.954 54.292 60.602C58.072 61.142 63.364 61.52 70.168 61.736C76.972 61.952 85.612 62.06 96.088 62.06C107.644 62.06 117.472 62.654 125.572 63.842C133.672 64.922 140.206 66.596 145.174 68.864C150.25 71.132 153.922 74.048 156.19 77.612C158.458 81.068 159.592 85.172 159.592 89.924C159.592 98.132 157 104.828 151.816 110.012C146.632 115.196 138.424 119.03 127.192 121.514C115.96 123.998 101.272 125.24 83.128 125.24C72.868 125.24 63.418 124.646 54.778 123.458C46.246 122.27 38.632 120.542 31.936 118.274C25.24 115.898 19.57 113.036 14.926 109.688C10.282 106.232 6.718 102.398 4.234 98.186C1.858 93.866 0.67 89.114 0.67 83.93ZM216.076 0.985994L216.076 25.286L174.928 25.286L174.928 0.985994L216.076 0.985994ZM176.062 42.62L214.942 42.62L214.942 122L176.062 122L176.062 42.62ZM232.317 42.62L271.197 42.62L271.197 122L232.317 122L232.317 42.62ZM329.517 40.19C335.889 40.19 342.045 40.892 347.985 42.296C353.925 43.592 359.217 45.86 363.861 49.1C368.613 52.34 372.393 56.768 375.201 62.384C378.009 68 379.413 75.074 379.413 83.606L379.413 122L340.533 122L340.533 88.466C340.533 80.366 338.427 74.642 334.215 71.294C330.003 67.838 322.389 66.11 311.373 66.11C305.541 66.11 299.871 66.758 294.363 68.054C288.963 69.35 284.103 70.916 279.783 72.752C275.463 74.48 272.061 76.208 269.577 77.936L269.253 71.78C269.685 69.836 271.143 67.136 273.627 63.68C276.219 60.116 279.945 56.552 284.805 52.988C289.665 49.424 295.767 46.4 303.111 43.916C310.563 41.432 319.365 40.19 329.517 40.19ZM435.789 40.19C442.161 40.19 448.317 40.892 454.257 42.296C460.197 43.592 465.489 45.86 470.133 49.1C474.885 52.34 478.665 56.768 481.473 62.384C484.281 68 485.685 75.074 485.685 83.606L485.685 122L446.805 122L446.805 88.466C446.805 80.366 444.699 74.642 440.487 71.294C436.275 67.838 428.661 66.11 417.645 66.11C411.813 66.11 406.143 66.758 400.635 68.054C395.235 69.35 390.375 70.916 386.055 72.752C381.735 74.48 378.333 76.208 375.849 77.936L375.525 70.16C375.957 68.54 377.577 66.11 380.385 62.87C383.193 59.63 387.135 56.282 392.211 52.826C397.395 49.37 403.605 46.4 410.841 43.916C418.185 41.432 426.501 40.19 435.789 40.19ZM599.133 124.43C589.413 124.43 580.665 123.458 572.889 121.514C565.113 119.462 558.471 116.6 552.963 112.928C547.455 109.148 543.243 104.666 540.327 99.482C537.411 94.298 535.953 88.574 535.953 82.31C535.953 76.046 537.411 70.376 540.327 65.3C543.243 60.116 547.455 55.688 552.963 52.016C558.471 48.236 565.113 45.374 572.889 43.43C580.665 41.378 589.413 40.352 599.133 40.352C610.797 40.352 621.165 42.026 630.237 45.374C639.417 48.614 646.599 53.366 651.783 59.63C656.967 65.894 659.559 73.454 659.559 82.31C659.559 91.598 656.967 99.374 651.783 105.638C646.599 111.902 639.417 116.6 630.237 119.732C621.165 122.864 610.797 124.43 599.133 124.43ZM584.553 99.644C591.897 99.644 598.161 98.996 603.345 97.7C608.529 96.404 612.471 94.514 615.171 92.03C617.871 89.438 619.221 86.198 619.221 82.31C619.221 76.586 616.197 72.266 610.149 69.35C604.101 66.434 595.569 64.976 584.553 64.976C576.345 64.976 568.785 65.462 561.873 66.434C555.069 67.406 549.561 69.188 545.349 71.78C541.245 74.264 539.193 77.774 539.193 82.31C539.193 86.846 541.245 90.41 545.349 93.002C549.561 95.486 555.069 97.214 561.873 98.186C568.785 99.158 576.345 99.644 584.553 99.644ZM500.313 42.62L536.925 42.62L539.193 73.4L539.193 154.4L500.313 154.4L500.313 42.62ZM675.027 10.22L713.907 10.22L713.907 122L675.027 122L675.027 10.22ZM773.742 0.985994L773.742 25.286L732.594 25.286L732.594 0.985994L773.742 0.985994ZM733.728 42.62L772.608 42.62L772.608 122L733.728 122L733.728 42.62ZM789.173 93.488L824.975 93.488C826.487 96.296 829.349 98.24 833.561 99.32C837.881 100.4 844.037 100.94 852.029 100.94C858.185 100.94 862.721 100.616 865.637 99.968C868.661 99.32 870.605 98.456 871.469 97.376C872.441 96.296 872.927 95.162 872.927 93.974C872.927 92.138 871.901 90.896 869.849 90.248C867.905 89.492 864.557 89.06 859.805 88.952C855.053 88.736 848.519 88.628 840.203 88.628C832.319 88.628 825.245 88.304 818.981 87.656C812.825 86.9 807.587 85.766 803.267 84.254C798.947 82.634 795.653 80.42 793.385 77.612C791.117 74.804 789.983 71.294 789.983 67.082C789.983 61.898 791.657 57.578 795.005 54.122C798.353 50.558 802.889 47.804 808.613 45.86C814.337 43.808 820.925 42.35 828.377 41.486C835.937 40.622 843.821 40.19 852.029 40.19C865.637 40.19 876.761 41.594 885.401 44.402C894.041 47.102 900.413 50.774 904.517 55.418C908.621 60.062 910.619 65.3 910.511 71.132L875.681 71.132C874.493 68.324 872.225 66.38 868.877 65.3C865.637 64.22 860.021 63.68 852.029 63.68C844.469 63.68 838.961 64.274 835.505 65.462C832.157 66.542 830.483 68.324 830.483 70.808C830.483 72.428 831.293 73.67 832.913 74.534C834.641 75.29 837.827 75.83 842.471 76.154C847.223 76.478 854.135 76.64 863.207 76.64C869.471 76.64 875.573 76.856 881.513 77.288C887.561 77.72 892.961 78.638 897.713 80.042C902.573 81.446 906.407 83.606 909.215 86.522C912.023 89.438 913.427 93.434 913.427 98.51C913.427 104.666 910.889 109.688 905.813 113.576C900.845 117.356 893.771 120.11 884.591 121.838C875.411 123.566 864.557 124.43 852.029 124.43C841.121 124.43 831.887 123.728 824.327 122.324C816.875 120.92 810.773 119.084 806.021 116.816C801.269 114.44 797.597 111.902 795.005 109.202C792.521 106.394 790.847 103.64 789.983 100.94C789.227 98.132 788.957 95.648 789.173 93.488ZM922.304 42.62L1017.56 42.62V66.92L922.304 66.92V42.62ZM950.492 18.32L989.372 18.32L989.372 122L950.492 122L950.492 18.32Z" fill="white"/>
</svg>
