<svg width="1332" height="202" viewBox="0 0 1332 202" fill="none" xmlns="http://www.w3.org/2000/svg">
<path d="M0.42 109.18L58.296 109.18C59.2853 112.148 62.1827 114.692 66.988 116.812C71.7933 118.791 78.224 120.345 86.28 121.476C94.4773 122.465 103.947 122.96 114.688 122.96C125.288 122.96 133.627 122.677 139.704 122.112C145.923 121.405 150.304 120.275 152.848 118.72C155.392 117.024 156.664 114.763 156.664 111.936C156.664 109.251 154.615 107.201 150.516 105.788C146.417 104.233 139.139 103.173 128.68 102.608C118.221 102.043 103.523 101.76 84.584 101.76C70.4507 101.76 58.2253 101.124 47.908 99.852C37.732 98.4387 29.3227 96.3187 22.68 93.492C16.1787 90.524 11.3733 86.8493 8.264 82.468C5.15467 77.9453 3.6 72.5747 3.6 66.356C3.6 55.6147 7.204 46.7813 14.412 39.856C21.7613 32.7893 32.7853 27.56 47.484 24.168C62.324 20.6347 80.8387 18.868 103.028 18.868C135.535 18.868 160.339 23.6027 177.44 33.072C194.683 42.4 203.304 55.8973 203.304 73.564L148.396 73.564C147.689 68.9 143.308 65.3667 135.252 62.964C127.196 60.42 115.748 59.148 100.908 59.148C86.2093 59.148 75.256 59.996 68.048 61.692C60.9813 63.388 57.448 66.2853 57.448 70.384C57.448 72.504 58.4373 74.2 60.416 75.472C62.3947 76.744 65.7867 77.804 70.592 78.652C75.5387 79.3587 82.464 79.8533 91.368 80.136C100.272 80.4187 111.579 80.56 125.288 80.56C140.411 80.56 153.272 81.3373 163.872 82.892C174.472 84.3053 183.023 86.496 189.524 89.464C196.167 92.432 200.972 96.248 203.94 100.912C206.908 105.435 208.392 110.805 208.392 117.024C208.392 127.765 205 136.528 198.216 143.312C191.432 150.096 180.691 155.113 165.992 158.364C151.293 161.615 132.072 163.24 108.328 163.24C94.9013 163.24 82.5347 162.463 71.228 160.908C60.0627 159.353 50.0987 157.092 41.336 154.124C32.5733 151.015 25.1533 147.269 19.076 142.888C12.9987 138.365 8.33467 133.348 5.084 127.836C1.97467 122.183 0.42 115.964 0.42 109.18ZM282.309 0.635992L282.309 32.436L228.461 32.436L228.461 0.635992L282.309 0.635992ZM229.945 55.12L280.825 55.12L280.825 159L229.945 159L229.945 55.12ZM303.563 55.12L354.443 55.12L354.443 159L303.563 159L303.563 55.12ZM430.763 51.94C439.102 51.94 447.158 52.8587 454.931 54.696C462.705 56.392 469.63 59.36 475.707 63.6C481.926 67.84 486.873 73.6347 490.547 80.984C494.222 88.3333 496.059 97.5907 496.059 108.756L496.059 159L445.179 159L445.179 115.116C445.179 104.516 442.423 97.0253 436.911 92.644C431.399 88.1213 421.435 85.86 407.019 85.86C399.387 85.86 391.967 86.708 384.759 88.404C377.693 90.1 371.333 92.1493 365.679 94.552C360.026 96.8133 355.574 99.0747 352.323 101.336L351.899 93.28C352.465 90.736 354.373 87.2027 357.623 82.68C361.015 78.016 365.891 73.352 372.251 68.688C378.611 64.024 386.597 60.0667 396.207 56.816C405.959 53.5653 417.478 51.94 430.763 51.94ZM569.835 51.94C578.174 51.94 586.23 52.8587 594.003 54.696C601.777 56.392 608.702 59.36 614.779 63.6C620.998 67.84 625.945 73.6347 629.619 80.984C633.294 88.3333 635.131 97.5907 635.131 108.756L635.131 159L584.251 159L584.251 115.116C584.251 104.516 581.495 97.0253 575.983 92.644C570.471 88.1213 560.507 85.86 546.091 85.86C538.459 85.86 531.039 86.708 523.831 88.404C516.765 90.1 510.405 92.1493 504.751 94.552C499.098 96.8133 494.646 99.0747 491.395 101.336L490.971 91.16C491.537 89.04 493.657 85.86 497.331 81.62C501.006 77.38 506.165 72.9987 512.807 68.476C519.591 63.9533 527.718 60.0667 537.187 56.816C546.798 53.5653 557.681 51.94 569.835 51.94ZM783.594 162.18C770.874 162.18 759.426 160.908 749.25 158.364C739.074 155.679 730.382 151.933 723.174 147.128C715.966 142.181 710.454 136.316 706.638 129.532C702.822 122.748 700.914 115.257 700.914 107.06C700.914 98.8627 702.822 91.4427 706.638 84.8C710.454 78.016 715.966 72.2213 723.174 67.416C730.382 62.4693 739.074 58.724 749.25 56.18C759.426 53.4947 770.874 52.152 783.594 52.152C798.858 52.152 812.426 54.3427 824.298 58.724C836.312 62.964 845.71 69.1827 852.494 77.38C859.278 85.5773 862.67 95.4707 862.67 107.06C862.67 119.215 859.278 129.391 852.494 137.588C845.71 145.785 836.312 151.933 824.298 156.032C812.426 160.131 798.858 162.18 783.594 162.18ZM764.514 129.744C774.125 129.744 782.322 128.896 789.106 127.2C795.89 125.504 801.049 123.031 804.582 119.78C808.116 116.388 809.882 112.148 809.882 107.06C809.882 99.5693 805.925 93.916 798.01 90.1C790.096 86.284 778.93 84.376 764.514 84.376C753.773 84.376 743.88 85.012 734.834 86.284C725.93 87.556 718.722 89.888 713.21 93.28C707.84 96.5307 705.154 101.124 705.154 107.06C705.154 112.996 707.84 117.66 713.21 121.052C718.722 124.303 725.93 126.564 734.834 127.836C743.88 129.108 753.773 129.744 764.514 129.744ZM654.274 55.12L702.186 55.12L705.154 95.4L705.154 201.4L654.274 201.4L654.274 55.12ZM882.911 12.72L933.791 12.72L933.791 159L882.911 159L882.911 12.72ZM1012.09 0.635992V32.436L958.246 32.436V0.635992L1012.09 0.635992ZM959.73 55.12L1010.61 55.12L1010.61 159L959.73 159L959.73 55.12ZM1032.29 121.688L1079.14 121.688C1081.12 125.363 1084.86 127.907 1090.38 129.32C1096.03 130.733 1104.09 131.44 1114.54 131.44C1122.6 131.44 1128.54 131.016 1132.35 130.168C1136.31 129.32 1138.85 128.189 1139.98 126.776C1141.26 125.363 1141.89 123.879 1141.89 122.324C1141.89 119.921 1140.55 118.296 1137.86 117.448C1135.32 116.459 1130.94 115.893 1124.72 115.752C1118.5 115.469 1109.95 115.328 1099.07 115.328C1088.75 115.328 1079.49 114.904 1071.3 114.056C1063.24 113.067 1056.39 111.583 1050.73 109.604C1045.08 107.484 1040.77 104.587 1037.8 100.912C1034.83 97.2373 1033.35 92.644 1033.35 87.132C1033.35 80.348 1035.54 74.6947 1039.92 70.172C1044.3 65.508 1050.24 61.904 1057.73 59.36C1065.22 56.6747 1073.84 54.7667 1083.59 53.636C1093.49 52.5053 1103.8 51.94 1114.54 51.94C1132.35 51.94 1146.91 53.7773 1158.22 57.452C1169.52 60.9853 1177.86 65.7907 1183.23 71.868C1188.6 77.9453 1191.22 84.8 1191.08 92.432L1145.5 92.432C1143.94 88.7573 1140.97 86.2133 1136.59 84.8C1132.35 83.3867 1125 82.68 1114.54 82.68C1104.65 82.68 1097.44 83.4573 1092.92 85.012C1088.54 86.4253 1086.35 88.7573 1086.35 92.008C1086.35 94.128 1087.41 95.7533 1089.53 96.884C1091.79 97.8733 1095.96 98.58 1102.04 99.004C1108.26 99.428 1117.3 99.64 1129.17 99.64C1137.37 99.64 1145.36 99.9227 1153.13 100.488C1161.04 101.053 1168.11 102.255 1174.33 104.092C1180.69 105.929 1185.71 108.756 1189.38 112.572C1193.06 116.388 1194.89 121.617 1194.89 128.26C1194.89 136.316 1191.57 142.888 1184.93 147.976C1178.43 152.923 1169.17 156.527 1157.16 158.788C1145.14 161.049 1130.94 162.18 1114.54 162.18C1100.27 162.18 1088.19 161.261 1078.29 159.424C1068.54 157.587 1060.56 155.184 1054.34 152.216C1048.12 149.107 1043.31 145.785 1039.92 142.252C1036.67 138.577 1034.48 134.973 1033.35 131.44C1032.36 127.765 1032.01 124.515 1032.29 121.688ZM1206.51 55.12L1331.17 55.12V86.92L1206.51 86.92V55.12ZM1243.4 23.32L1294.28 23.32L1294.28 159L1243.4 159L1243.4 23.32Z" fill="white"/>
</svg>
