<svg width="3014" height="455" viewBox="0 0 3014 455" fill="none" xmlns="http://www.w3.org/2000/svg">
<path d="M0.8 246.2L131.84 246.2C134.08 252.92 140.64 258.68 151.52 263.48C162.4 267.96 176.96 271.48 195.2 274.04C213.76 276.28 235.2 277.4 259.52 277.4C283.52 277.4 302.4 276.76 316.16 275.48C330.24 273.88 340.16 271.32 345.92 267.8C351.68 263.96 354.56 258.84 354.56 252.44C354.56 246.36 349.92 241.72 340.64 238.52C331.36 235 314.88 232.6 291.2 231.32C267.52 230.04 234.24 229.4 191.36 229.4C159.36 229.4 131.68 227.96 108.32 225.08C85.28 221.88 66.24 217.08 51.2 210.68C36.48 203.96 25.6 195.64 18.56 185.72C11.52 175.48 8 163.32 8 149.24C8 124.92 16.16 104.92 32.48 89.24C49.12 73.24 74.08 61.4 107.36 53.72C140.96 45.72 182.88 41.72 233.12 41.72C306.72 41.72 362.88 52.44 401.6 73.88C440.64 95 460.16 125.56 460.16 165.56L335.84 165.56C334.24 155 324.32 147 306.08 141.56C287.84 135.8 261.92 132.92 228.32 132.92C195.04 132.92 170.24 134.84 153.92 138.68C137.92 142.52 129.92 149.08 129.92 158.36C129.92 163.16 132.16 167 136.64 169.88C141.12 172.76 148.8 175.16 159.68 177.08C170.88 178.68 186.56 179.8 206.72 180.44C226.88 181.08 252.48 181.4 283.52 181.4C317.76 181.4 346.88 183.16 370.88 186.68C394.88 189.88 414.24 194.84 428.96 201.56C444 208.28 454.88 216.92 461.6 227.48C468.32 237.72 471.68 249.88 471.68 263.96C471.68 288.28 464 308.12 448.64 323.48C433.28 338.84 408.96 350.2 375.68 357.56C342.4 364.92 298.88 368.6 245.12 368.6C214.72 368.6 186.72 366.84 161.12 363.32C135.84 359.8 113.28 354.68 93.44 347.96C73.6 340.92 56.8 332.44 43.04 322.52C29.28 312.28 18.72 300.92 11.36 288.44C4.32 275.64 0.8 261.56 0.8 246.2ZM639.039 0.439981L639.039 72.44L517.119 72.44L517.119 0.439981L639.039 0.439981ZM520.479 123.8L635.679 123.8L635.679 359L520.479 359L520.479 123.8ZM687.163 123.8L802.363 123.8L802.363 359L687.163 359L687.163 123.8ZM975.163 116.6C994.043 116.6 1012.28 118.68 1029.88 122.84C1047.48 126.68 1063.16 133.4 1076.92 143C1091 152.6 1102.2 165.72 1110.52 182.36C1118.84 199 1123 219.96 1123 245.24L1123 359L1007.8 359L1007.8 259.64C1007.8 235.64 1001.56 218.68 989.083 208.76C976.603 198.52 954.043 193.4 921.403 193.4C904.123 193.4 887.323 195.32 871.003 199.16C855.003 203 840.603 207.64 827.803 213.08C815.003 218.2 804.923 223.32 797.563 228.44L796.603 210.2C797.883 204.44 802.203 196.44 809.563 186.2C817.243 175.64 828.283 165.08 842.683 154.52C857.083 143.96 875.163 135 896.923 127.64C919.003 120.28 945.083 116.6 975.163 116.6ZM1290.04 116.6C1308.92 116.6 1327.16 118.68 1344.76 122.84C1362.36 126.68 1378.04 133.4 1391.8 143C1405.88 152.6 1417.08 165.72 1425.4 182.36C1433.72 199 1437.88 219.96 1437.88 245.24L1437.88 359L1322.68 359V259.64C1322.68 235.64 1316.44 218.68 1303.96 208.76C1291.48 198.52 1268.92 193.4 1236.28 193.4C1219 193.4 1202.2 195.32 1185.88 199.16C1169.88 203 1155.48 207.64 1142.68 213.08C1129.88 218.2 1119.8 223.32 1112.44 228.44L1111.48 205.4C1112.76 200.6 1117.56 193.4 1125.88 183.8C1134.2 174.2 1145.88 164.28 1160.92 154.04C1176.28 143.8 1194.68 135 1216.12 127.64C1237.88 120.28 1262.52 116.6 1290.04 116.6ZM1774.03 366.2C1745.23 366.2 1719.31 363.32 1696.27 357.56C1673.23 351.48 1653.55 343 1637.23 332.12C1620.91 320.92 1608.43 307.64 1599.79 292.28C1591.15 276.92 1586.83 259.96 1586.83 241.4C1586.83 222.84 1591.15 206.04 1599.79 191C1608.43 175.64 1620.91 162.52 1637.23 151.64C1653.55 140.44 1673.23 131.96 1696.27 126.2C1719.31 120.12 1745.23 117.08 1774.03 117.08C1808.59 117.08 1839.31 122.04 1866.19 131.96C1893.39 141.56 1914.67 155.64 1930.03 174.2C1945.39 192.76 1953.06 215.16 1953.06 241.4C1953.06 268.92 1945.39 291.96 1930.03 310.52C1914.67 329.08 1893.39 343 1866.19 352.28C1839.31 361.56 1808.59 366.2 1774.03 366.2ZM1730.82 292.76C1752.59 292.76 1771.15 290.84 1786.51 287C1801.87 283.16 1813.55 277.56 1821.55 270.2C1829.55 262.52 1833.55 252.92 1833.55 241.4C1833.55 224.44 1824.59 211.64 1806.67 203C1788.75 194.36 1763.47 190.04 1730.82 190.04C1706.51 190.04 1684.11 191.48 1663.63 194.36C1643.47 197.24 1627.15 202.52 1614.67 210.2C1602.51 217.56 1596.43 227.96 1596.43 241.4C1596.43 254.84 1602.51 265.4 1614.67 273.08C1627.15 280.44 1643.47 285.56 1663.63 288.44C1684.11 291.32 1706.51 292.76 1730.82 292.76ZM1481.23 123.8L1589.71 123.8L1596.43 215L1596.43 455L1481.23 455L1481.23 123.8ZM1998.89 27.8L2114.09 27.8L2114.09 359L1998.89 359L1998.89 27.8ZM2291.38 0.439981L2291.38 72.44L2169.46 72.44L2169.46 0.439981L2291.38 0.439981ZM2172.82 123.8L2288.02 123.8L2288.02 359L2172.82 359L2172.82 123.8ZM2337.11 274.52L2443.19 274.52C2447.67 282.84 2456.15 288.6 2468.63 291.8C2481.43 295 2499.67 296.6 2523.35 296.6C2541.59 296.6 2555.03 295.64 2563.67 293.72C2572.63 291.8 2578.39 289.24 2580.95 286.04C2583.83 282.84 2585.27 279.48 2585.27 275.96C2585.27 270.52 2582.23 266.84 2576.15 264.92C2570.39 262.68 2560.47 261.4 2546.39 261.08C2532.31 260.44 2512.95 260.12 2488.31 260.12C2464.95 260.12 2443.99 259.16 2425.43 257.24C2407.19 255 2391.67 251.64 2378.87 247.16C2366.07 242.36 2356.31 235.8 2349.59 227.48C2342.87 219.16 2339.51 208.76 2339.51 196.28C2339.51 180.92 2344.47 168.12 2354.39 157.88C2364.31 147.32 2377.75 139.16 2394.71 133.4C2411.67 127.32 2431.19 123 2453.27 120.44C2475.67 117.88 2499.03 116.6 2523.35 116.6C2563.67 116.6 2596.63 120.76 2622.23 129.08C2647.83 137.08 2666.71 147.96 2678.87 161.72C2691.03 175.48 2696.95 191 2696.63 208.28L2593.43 208.28C2589.91 199.96 2583.19 194.2 2573.27 191C2563.67 187.8 2547.03 186.2 2523.35 186.2C2500.95 186.2 2484.63 187.96 2474.39 191.48C2464.47 194.68 2459.51 199.96 2459.51 207.32C2459.51 212.12 2461.91 215.8 2466.71 218.36C2471.83 220.6 2481.27 222.2 2495.03 223.16C2509.11 224.12 2529.59 224.6 2556.47 224.6C2575.03 224.6 2593.11 225.24 2610.71 226.52C2628.63 227.8 2644.63 230.52 2658.71 234.68C2673.11 238.84 2684.47 245.24 2692.79 253.88C2701.11 262.52 2705.27 274.36 2705.27 289.4C2705.27 307.64 2697.75 322.52 2682.71 334.04C2667.99 345.24 2647.03 353.4 2619.83 358.52C2592.63 363.64 2560.47 366.2 2523.35 366.2C2491.03 366.2 2463.67 364.12 2441.27 359.96C2419.19 355.8 2401.11 350.36 2387.03 343.64C2372.95 336.6 2362.07 329.08 2354.39 321.08C2347.03 312.76 2342.07 304.6 2339.51 296.6C2337.27 288.28 2336.47 280.92 2337.11 274.52ZM2731.57 123.8L3013.81 123.8V195.8L2731.57 195.8V123.8ZM2815.09 51.8L2930.29 51.8L2930.29 359L2815.09 359L2815.09 51.8Z" fill="#0C0E11"/>
</svg>
